{"title":"Justin Bieber Ft. Chance The Rapper - Confident [Music Video] 10","uid":9688483,"size":141603866,"categoryP":"video","categoryS":"music_videos","magnet":"?xt=urn:btih:6ae2260c05d069578444fecff49aa06501b85b12&amp;dn=Justin+Bieber+Ft.+Chance+The+Rapper+-+Confident+%5BMusic+Video%5D+10&amp;tr=udp%3A%2F%2Ftracker.openbittorrent.com%3A80&amp;tr=udp%3A%2F%2Fopen.demonii.com%3A1337&amp;tr=udp%3A%2F%2Ftracker.coppersurfer.tk%3A6969&amp;tr=udp%3A%2F%2Fexodus.desync.com%3A6969","seeders":8,"leechers":3,"uploader":"Sbyky","files":1,"time":1393817841,"description":"\n\nGeneral\nComplete name                            : Justin Bieber Ft. Chance The Rapper - Confident [Music Video] 1080p [Sbyky].MP4\nFormat                                   : MPEG-4\nFormat profile                           : Base Media\nCodec ID                                 : isom\nFile size                                : 135 MiB\nDuration                                 : 6mn 5s\nOverall bit rate mode                    : Variable\nOverall bit rate                         : 3 101 Kbps\nEncoded date                             : UTC 2014-01-26 17:54:04\nTagged date                              : UTC 2014-01-26 17:54:04\n\nVideo\nID                                       : 1\nFormat                                   : AVC\nFormat/Info                              : Advanced Video Codec\nFormat profile                           : &lt;a class=&quot;__cf_email__&quot; href=&quot;/cdn-cgi/l/email-protection&quot; data-cfemail=&quot;7e361719163e324a504e&quot;&gt;[email&amp;#160;protected]&lt;/a&gt;&lt;script cf-hash='f9e31' type=&quot;text/javascript&quot;&gt;\n/* &lt;![CDATA[ */!function(){try{var t=&quot;currentScript&quot;in document?document.currentScript:function(){for(var t=document.getElementsByTagName(&quot;script&quot;),e=t.length;e--;)if(t[e].getAttribute(&quot;cf-hash&quot;))return t[e]}();if(t&amp;&amp;t.previousSibling){var e,r,n,i,c=t.previousSibling,a=c.getAttribute(&quot;data-cfemail&quot;);if(a){for(e=&quot;&quot;,r=parseInt(a.substr(0,2),16),n=2;a.length-n;n+=2)i=parseInt(a.substr(n,2),16)^r,e+=String.fromCharCode(i);e=document.createTextNode(e),c.parentNode.replaceChild(e,c)}}}catch(u){}}();/* ]]&gt; */&lt;/script&gt;\nFormat settings, CABAC                   : Yes\nFormat settings, ReFrames                : 2 frames\nCodec ID                                 : avc1\nCodec ID/Info                            : Advanced Video Coding\nDuration                                 : 6mn 5s\nDuration_LastFrame                       : -9ms\nBit rate                                 : 2 973 Kbps\nWidth                                    : 1 920 pixels\nHeight                                   : 1 080 pixels\nDisplay aspect ratio                     : 16:9\nFrame rate mode                          : Constant\nFrame rate                               : 23.976 fps\nColor space                              : YUV\nChroma subsampling                       : 4:2:0\nBit depth                                : 8 bits\nScan type                                : Progressive\nBits/(Pixel*Frame)                       : 0.060\nStream size                              : 129 MiB (96%)\nEncoded date                             : UTC 2014-01-26 17:54:04\nTagged date                              : UTC 2014-01-26 17:54:04\n\nAudio\nID                                       : 2\nFormat                                   : AAC\nFormat/Info                              : Advanced Audio Codec\nFormat profile                           : LC\nCodec ID                                 : 40\nDuration                                 : 6mn 5s\nBit rate mode                            : Variable\nBit rate                                 : 126 Kbps\nChannel(s)                               : 2 channels\nChannel positions                        : Front: L R\nSampling rate                            : 44.1 KHz\nCompression mode                         : Lossy\nStream size                              : 5.47 MiB (4%)\nEncoded date                             : UTC 2014-01-26 17:53:59\nTagged date                              : UTC 2014-01-26 17:53:59\n\nShared By Sbyky\n","torrent":{"xt":"urn:btih:6ae2260c05d069578444fecff49aa06501b85b12","amp;dn":"Justin+Bieber+Ft.+Chance+The+Rapper+-+Confident+%5BMusic+Video%5D+10","amp;tr":["udp%3A%2F%2Ftracker.openbittorrent.com%3A80","udp%3A%2F%2Fopen.demonii.com%3A1337","udp%3A%2F%2Ftracker.coppersurfer.tk%3A6969","udp%3A%2F%2Fexodus.desync.com%3A6969"],"infoHash":"6ae2260c05d069578444fecff49aa06501b85b12","infoHashBuffer":{"type":"Buffer","data":[106,226,38,12,5,208,105,87,132,68,254,207,244,154,160,101,1,184,91,18]},"announce":[],"urlList":[]}}